<svg width="301" height="44" viewBox="0 0 301 44" fill="none" xmlns="http://www.w3.org/2000/svg">
<path d="M0 7.04C0 3.15192 3.15192 0 7.04 0H36.96C40.8481 0 44 3.15192 44 7.04V36.96C44 40.8481 40.8481 44 36.96 44H7.04C3.15192 44 0 40.8481 0 36.96V7.04Z" fill="#FF0000"/>
<path d="M9.40623 12.968C7.92153 15.015 6.92836 17.4418 6.60001 20.075H37.1617C36.8333 17.4418 35.8402 15.015 34.3554 12.968C34.2754 13.0128 34.1941 13.0576 34.1119 13.1025C31.2525 14.6621 27.087 16.225 21.8808 16.225C16.6746 16.225 12.509 14.6621 9.64963 13.1025C9.56745 13.0577 9.48631 13.0128 9.40623 12.968Z" fill="white"/>
<path d="M31.614 10.0652C29.2178 11.2691 25.9185 12.375 21.8808 12.375C17.8431 12.375 14.5439 11.2691 12.1476 10.0653C14.8004 7.89919 18.1889 6.60004 21.8809 6.60004C25.5728 6.60004 28.9612 7.89918 31.614 10.0652Z" fill="white"/>
<path d="M6.60001 23.925C6.92837 26.5582 7.92153 28.9851 9.40625 31.0321C9.48633 30.9873 9.56749 30.9424 9.64969 30.8976C12.509 29.3379 16.6747 27.775 21.8809 27.775C27.087 27.775 31.2527 29.3379 34.1119 30.8976C34.1943 30.9424 34.2754 30.9873 34.3554 31.0321C35.8402 28.9851 36.8333 26.5582 37.1617 23.925H6.60001Z" fill="white"/>
<path d="M21.8809 37.4C18.1889 37.4 14.8004 36.1008 12.1476 33.9348C14.544 32.7309 17.8432 31.625 21.8809 31.625C25.9185 31.625 29.2178 32.7309 31.614 33.9348C28.9612 36.1008 25.5728 37.4 21.8809 37.4Z" fill="white"/>
<path d="M299.955 20.5227L295.523 20.7954C295.447 20.4167 295.284 20.0758 295.034 19.7727C294.784 19.4621 294.455 19.2159 294.045 19.0341C293.644 18.8447 293.163 18.75 292.602 18.75C291.852 18.75 291.22 18.9091 290.705 19.2273C290.189 19.5379 289.932 19.9545 289.932 20.4773C289.932 20.8939 290.098 21.2462 290.432 21.5341C290.765 21.822 291.337 22.053 292.148 22.2273L295.307 22.8636C297.004 23.2121 298.269 23.7727 299.102 24.5454C299.936 25.3182 300.352 26.3333 300.352 27.5909C300.352 28.7348 300.015 29.7386 299.341 30.6023C298.674 31.4659 297.758 32.1401 296.591 32.625C295.432 33.1023 294.095 33.3409 292.58 33.3409C290.269 33.3409 288.428 32.8598 287.057 31.8977C285.693 30.928 284.894 29.6098 284.659 27.9432L289.42 27.6932C289.564 28.3977 289.913 28.9356 290.466 29.3068C291.019 29.6704 291.727 29.8523 292.591 29.8523C293.439 29.8523 294.121 29.6894 294.636 29.3636C295.159 29.0303 295.424 28.6023 295.432 28.0795C295.424 27.6401 295.239 27.2803 294.875 27C294.511 26.7121 293.951 26.4924 293.193 26.3409L290.17 25.7386C288.466 25.3977 287.197 24.8068 286.364 23.9659C285.538 23.125 285.125 22.053 285.125 20.75C285.125 19.6288 285.428 18.6629 286.034 17.8523C286.648 17.0417 287.508 16.4167 288.614 15.9773C289.727 15.5379 291.03 15.3182 292.523 15.3182C294.727 15.3182 296.462 15.7841 297.727 16.7159C299 17.6477 299.742 18.9167 299.955 20.5227Z" fill="white"/>
<path d="M271.52 33.2841C270.194 33.2841 268.993 32.9432 267.918 32.2614C266.849 31.572 266.001 30.5606 265.372 29.2273C264.751 27.8864 264.44 26.2424 264.44 24.2955C264.44 22.2955 264.762 20.6326 265.406 19.3068C266.05 17.9735 266.906 16.9773 267.974 16.3182C269.05 15.6515 270.228 15.3182 271.509 15.3182C272.486 15.3182 273.3 15.4849 273.952 15.8182C274.611 16.144 275.141 16.5531 275.543 17.0455C275.952 17.5303 276.262 18.0076 276.474 18.4773H276.622V9.72729H281.452V33H276.679V30.2046H276.474C276.247 30.6894 275.925 31.1705 275.509 31.6478C275.099 32.1174 274.565 32.5076 273.906 32.8182C273.255 33.1288 272.459 33.2841 271.52 33.2841ZM273.054 29.4318C273.834 29.4318 274.493 29.2197 275.031 28.7955C275.577 28.3637 275.993 27.7614 276.281 26.9887C276.577 26.2159 276.724 25.3106 276.724 24.2728C276.724 23.2349 276.58 22.3334 276.293 21.5682C276.005 20.8031 275.588 20.2121 275.043 19.7955C274.497 19.3788 273.834 19.1705 273.054 19.1705C272.259 19.1705 271.588 19.3864 271.043 19.8182C270.497 20.25 270.084 20.8485 269.804 21.6137C269.524 22.3788 269.384 23.2652 269.384 24.2728C269.384 25.2879 269.524 26.1856 269.804 26.9659C270.092 27.7387 270.505 28.3447 271.043 28.7841C271.588 29.2159 272.259 29.4318 273.054 29.4318Z" fill="white"/>
<path d="M250.023 22.9091V33H245.182V15.5454H249.795V18.625H250C250.386 17.6098 251.034 16.8068 251.943 16.2159C252.852 15.6174 253.955 15.3182 255.25 15.3182C256.462 15.3182 257.519 15.5833 258.42 16.1136C259.322 16.6439 260.023 17.4015 260.523 18.3864C261.023 19.3636 261.273 20.5303 261.273 21.8864V33H256.432V22.75C256.439 21.6818 256.167 20.8485 255.614 20.25C255.061 19.6439 254.299 19.3409 253.33 19.3409C252.678 19.3409 252.102 19.4811 251.602 19.7614C251.11 20.0417 250.723 20.4508 250.443 20.9886C250.17 21.5189 250.03 22.1591 250.023 22.9091Z" fill="white"/>
<path d="M234.011 33.3409C232.216 33.3409 230.67 32.9773 229.375 32.25C228.087 31.5151 227.095 30.4773 226.398 29.1364C225.701 27.7879 225.352 26.1932 225.352 24.3523C225.352 22.5568 225.701 20.9811 226.398 19.625C227.095 18.2689 228.076 17.2121 229.341 16.4545C230.614 15.697 232.106 15.3182 233.818 15.3182C234.97 15.3182 236.042 15.5038 237.034 15.875C238.034 16.2386 238.905 16.7879 239.648 17.5227C240.398 18.2576 240.981 19.1818 241.398 20.2954C241.814 21.4015 242.023 22.697 242.023 24.1818V25.5114H227.284V22.5114H237.466C237.466 21.8144 237.314 21.197 237.011 20.6591C236.708 20.1212 236.288 19.7008 235.75 19.3977C235.22 19.0871 234.602 18.9318 233.898 18.9318C233.163 18.9318 232.511 19.1023 231.943 19.4432C231.383 19.7765 230.943 20.2273 230.625 20.7954C230.307 21.3561 230.144 21.9811 230.136 22.6704V25.5227C230.136 26.3864 230.295 27.1326 230.614 27.7614C230.939 28.3901 231.398 28.875 231.989 29.2159C232.58 29.5568 233.28 29.7273 234.091 29.7273C234.629 29.7273 235.121 29.6515 235.568 29.5C236.015 29.3485 236.398 29.1212 236.716 28.8182C237.034 28.5151 237.277 28.1439 237.443 27.7045L241.92 28C241.693 29.0758 241.227 30.0151 240.523 30.8182C239.826 31.6136 238.924 32.2348 237.818 32.6818C236.72 33.1212 235.451 33.3409 234.011 33.3409Z" fill="white"/>
<path d="M213.776 33V15.5455H218.469V18.5909H218.651C218.969 17.5076 219.503 16.6894 220.253 16.1364C221.003 15.5758 221.866 15.2955 222.844 15.2955C223.086 15.2955 223.348 15.3106 223.628 15.3409C223.908 15.3712 224.154 15.4129 224.366 15.4659V19.7614C224.139 19.6932 223.825 19.6326 223.423 19.5796C223.022 19.5265 222.654 19.5 222.321 19.5C221.609 19.5 220.973 19.6553 220.412 19.9659C219.859 20.269 219.42 20.6932 219.094 21.2387C218.776 21.7841 218.616 22.4129 218.616 23.125V33H213.776Z" fill="white"/>
<path d="M193.418 13.7841V9.72729H212.531V13.7841H205.406V33H200.543V13.7841H193.418Z" fill="white"/>
<path d="M175.636 33.3409C173.841 33.3409 172.295 32.9773 171 32.25C169.712 31.5151 168.72 30.4773 168.023 29.1364C167.326 27.7879 166.977 26.1932 166.977 24.3523C166.977 22.5568 167.326 20.9811 168.023 19.625C168.72 18.2689 169.701 17.2121 170.966 16.4545C172.239 15.697 173.731 15.3182 175.443 15.3182C176.595 15.3182 177.667 15.5038 178.659 15.875C179.659 16.2386 180.53 16.7879 181.273 17.5227C182.023 18.2576 182.606 19.1818 183.023 20.2954C183.439 21.4015 183.648 22.697 183.648 24.1818V25.5114H168.909V22.5114H179.091C179.091 21.8144 178.939 21.197 178.636 20.6591C178.333 20.1212 177.913 19.7008 177.375 19.3977C176.845 19.0871 176.227 18.9318 175.523 18.9318C174.788 18.9318 174.136 19.1023 173.568 19.4432C173.008 19.7765 172.568 20.2273 172.25 20.7954C171.932 21.3561 171.769 21.9811 171.761 22.6704V25.5227C171.761 26.3864 171.92 27.1326 172.239 27.7614C172.564 28.3901 173.023 28.875 173.614 29.2159C174.205 29.5568 174.905 29.7273 175.716 29.7273C176.254 29.7273 176.746 29.6515 177.193 29.5C177.64 29.3485 178.023 29.1212 178.341 28.8182C178.659 28.5151 178.902 28.1439 179.068 27.7045L183.545 28C183.318 29.0758 182.852 30.0151 182.148 30.8182C181.451 31.6136 180.549 32.2348 179.443 32.6818C178.345 33.1212 177.076 33.3409 175.636 33.3409Z" fill="white"/>
<path d="M147.429 33V9.72729H152.27V18.4773H152.418C152.63 18.0076 152.937 17.5303 153.338 17.0455C153.747 16.5531 154.277 16.144 154.929 15.8182C155.588 15.4849 156.406 15.3182 157.384 15.3182C158.656 15.3182 159.831 15.6515 160.906 16.3182C161.982 16.9773 162.842 17.9735 163.486 19.3068C164.13 20.6326 164.452 22.2955 164.452 24.2955C164.452 26.2424 164.137 27.8864 163.509 29.2273C162.887 30.5606 162.039 31.572 160.963 32.2614C159.895 32.9432 158.698 33.2841 157.372 33.2841C156.433 33.2841 155.634 33.1288 154.974 32.8182C154.323 32.5076 153.789 32.1174 153.372 31.6478C152.956 31.1705 152.637 30.6894 152.418 30.2046H152.202V33H147.429ZM152.168 24.2728C152.168 25.3106 152.312 26.2159 152.599 26.9887C152.887 27.7614 153.304 28.3637 153.849 28.7955C154.395 29.2197 155.058 29.4318 155.838 29.4318C156.626 29.4318 157.293 29.2159 157.838 28.7841C158.384 28.3447 158.796 27.7387 159.077 26.9659C159.365 26.1856 159.509 25.2879 159.509 24.2728C159.509 23.2652 159.368 22.3788 159.088 21.6137C158.808 20.8485 158.395 20.25 157.849 19.8182C157.304 19.3864 156.634 19.1705 155.838 19.1705C155.05 19.1705 154.384 19.3788 153.838 19.7955C153.3 20.2121 152.887 20.8031 152.599 21.5682C152.312 22.3334 152.168 23.2349 152.168 24.2728Z" fill="white"/>
<path d="M138.625 25.5682V15.5455H143.466V33H138.818V29.8296H138.636C138.242 30.8523 137.587 31.6743 136.67 32.2955C135.761 32.9167 134.652 33.2273 133.341 33.2273C132.174 33.2273 131.148 32.9621 130.261 32.4318C129.375 31.9015 128.682 31.1477 128.182 30.1705C127.689 29.1932 127.439 28.0227 127.432 26.6591V15.5455H132.273V25.7955C132.28 26.8258 132.557 27.6402 133.102 28.2387C133.648 28.8371 134.379 29.1364 135.295 29.1364C135.879 29.1364 136.424 29.0038 136.932 28.7387C137.439 28.4659 137.848 28.0644 138.159 27.5341C138.477 27.0038 138.633 26.3485 138.625 25.5682Z" fill="white"/>
<path d="M124.278 15.5455V19.1818H113.767V15.5455H124.278ZM116.153 11.3636H120.994V27.6364C120.994 28.0833 121.062 28.4318 121.199 28.6818C121.335 28.9243 121.525 29.0947 121.767 29.1932C122.017 29.2917 122.305 29.3409 122.631 29.3409C122.858 29.3409 123.085 29.322 123.312 29.2841C123.54 29.2386 123.714 29.2046 123.835 29.1818L124.597 32.7841C124.354 32.8599 124.013 32.947 123.574 33.0455C123.134 33.1515 122.6 33.2159 121.972 33.2386C120.805 33.2841 119.782 33.1288 118.903 32.7727C118.032 32.4167 117.354 31.8636 116.869 31.1136C116.384 30.3636 116.146 29.4167 116.153 28.2727V11.3636Z" fill="white"/>
<path d="M106.281 25.5682V15.5455H111.122V33H106.474V29.8296H106.293C105.899 30.8523 105.243 31.6743 104.327 32.2955C103.418 32.9167 102.308 33.2273 100.997 33.2273C99.8305 33.2273 98.804 32.9621 97.9176 32.4318C97.0313 31.9015 96.3381 31.1477 95.8381 30.1705C95.3456 29.1932 95.0956 28.0227 95.0881 26.6591V15.5455H99.929V25.7955C99.9366 26.8258 100.213 27.6402 100.759 28.2387C101.304 28.8371 102.035 29.1364 102.952 29.1364C103.535 29.1364 104.08 29.0038 104.588 28.7387C105.096 28.4659 105.505 28.0644 105.815 27.5341C106.134 27.0038 106.289 26.3485 106.281 25.5682Z" fill="white"/>
<path d="M83.3494 33.3409C81.5843 33.3409 80.0578 32.9659 78.7699 32.2159C77.4896 31.4583 76.5009 30.4053 75.804 29.0568C75.107 27.7008 74.7585 26.1288 74.7585 24.3409C74.7585 22.5379 75.107 20.9621 75.804 19.6136C76.5009 18.2576 77.4896 17.2045 78.7699 16.4545C80.0578 15.697 81.5843 15.3182 83.3494 15.3182C85.1146 15.3182 86.6373 15.697 87.9176 16.4545C89.2055 17.2045 90.1979 18.2576 90.8949 19.6136C91.5918 20.9621 91.9403 22.5379 91.9403 24.3409C91.9403 26.1288 91.5918 27.7008 90.8949 29.0568C90.1979 30.4053 89.2055 31.4583 87.9176 32.2159C86.6373 32.9659 85.1146 33.3409 83.3494 33.3409ZM83.3722 29.5909C84.1752 29.5909 84.8456 29.3636 85.3835 28.9091C85.9214 28.447 86.3267 27.8182 86.5994 27.0227C86.8797 26.2273 87.0199 25.322 87.0199 24.3068C87.0199 23.2917 86.8797 22.3864 86.5994 21.5909C86.3267 20.7954 85.9214 20.1667 85.3835 19.7045C84.8456 19.2424 84.1752 19.0114 83.3722 19.0114C82.5615 19.0114 81.8797 19.2424 81.3267 19.7045C80.7812 20.1667 80.3684 20.7954 80.0881 21.5909C79.8153 22.3864 79.679 23.2917 79.679 24.3068C79.679 25.322 79.8153 26.2273 80.0881 27.0227C80.3684 27.8182 80.7812 28.447 81.3267 28.9091C81.8797 29.3636 82.5615 29.5909 83.3722 29.5909Z" fill="white"/>
<path d="M54.6591 9.72729H60.1705L65.4773 19.75H65.7045L71.0114 9.72729H76.5227L68.0341 24.7728V33H63.1477V24.7728L54.6591 9.72729Z" fill="white"/>
</svg>
